%TF.GenerationSoftware,KiCad,Pcbnew,7.0.5-0*%
%TF.CreationDate,2025-06-01T12:15:49-04:00*%
%TF.ProjectId,Solder,536f6c64-6572-42e6-9b69-6361645f7063,rev?*%
%TF.SameCoordinates,Original*%
%TF.FileFunction,Copper,L1,Top*%
%TF.FilePolarity,Positive*%
%FSLAX46Y46*%
G04 Gerber Fmt 4.6, Leading zero omitted, Abs format (unit mm)*
G04 Created by KiCad (PCBNEW 7.0.5-0) date 2025-06-01 12:15:49*
%MOMM*%
%LPD*%
G01*
G04 APERTURE LIST*
%TA.AperFunction,ComponentPad*%
%ADD10C,2.000000*%
%TD*%
%TA.AperFunction,ComponentPad*%
%ADD11C,1.600000*%
%TD*%
%TA.AperFunction,ComponentPad*%
%ADD12O,1.600000X1.600000*%
%TD*%
%TA.AperFunction,ComponentPad*%
%ADD13R,1.800000X1.800000*%
%TD*%
%TA.AperFunction,ComponentPad*%
%ADD14C,1.800000*%
%TD*%
%TA.AperFunction,Conductor*%
%ADD15C,0.250000*%
%TD*%
G04 APERTURE END LIST*
D10*
%TO.P,SW1,2,2*%
%TO.N,Net-(D1-A)*%
X93980000Y-104140000D03*
X100480000Y-104140000D03*
%TO.P,SW1,1,1*%
%TO.N,Net-(BT1-+)*%
X93980000Y-99640000D03*
X100480000Y-99640000D03*
%TD*%
D11*
%TO.P,R2,1*%
%TO.N,Net-(D2-K)*%
X124460000Y-104140000D03*
D12*
%TO.P,R2,2*%
%TO.N,Net-(BT1--)*%
X132080000Y-104140000D03*
%TD*%
D11*
%TO.P,R1,1*%
%TO.N,Net-(D1-K)*%
X110490000Y-104140000D03*
D12*
%TO.P,R1,2*%
%TO.N,Net-(BT1--)*%
X118110000Y-104140000D03*
%TD*%
D13*
%TO.P,D2,1,K*%
%TO.N,Net-(D2-K)*%
X180340000Y-124460000D03*
D14*
%TO.P,D2,2,A*%
%TO.N,Net-(D1-A)*%
X182880000Y-124460000D03*
%TD*%
%TO.P,D1,2,A*%
%TO.N,Net-(D1-A)*%
X114300000Y-124460000D03*
D13*
%TO.P,D1,1,K*%
%TO.N,Net-(D1-K)*%
X111760000Y-124460000D03*
%TD*%
D15*
%TO.N,Net-(BT1-+)*%
X93980000Y-99640000D02*
X100480000Y-99640000D01*
%TO.N,Net-(D1-A)*%
X100480000Y-104140000D02*
X93980000Y-104140000D01*
X114300000Y-129540000D02*
X106680000Y-129540000D01*
X106680000Y-129540000D02*
X106680000Y-110340000D01*
X114300000Y-124460000D02*
X114300000Y-129540000D01*
X106680000Y-110340000D02*
X100480000Y-104140000D01*
X182880000Y-124460000D02*
X182880000Y-132080000D01*
X182880000Y-132080000D02*
X167640000Y-132080000D01*
X167640000Y-132080000D02*
X162560000Y-127000000D01*
X162560000Y-127000000D02*
X121920000Y-127000000D01*
X121920000Y-127000000D02*
X119380000Y-124460000D01*
X119380000Y-124460000D02*
X114300000Y-124460000D01*
%TO.N,Net-(D2-K)*%
X124460000Y-119380000D02*
X180340000Y-119380000D01*
X124460000Y-104140000D02*
X124460000Y-119380000D01*
X180340000Y-119380000D02*
X180340000Y-124460000D01*
%TO.N,Net-(BT1--)*%
X123190000Y-99060000D02*
X129540000Y-99060000D01*
X118110000Y-104140000D02*
X123190000Y-99060000D01*
X129540000Y-99060000D02*
X132080000Y-101600000D01*
X132080000Y-101600000D02*
X132080000Y-104140000D01*
%TO.N,Net-(D1-K)*%
X110490000Y-104140000D02*
X110490000Y-123190000D01*
X110490000Y-123190000D02*
X111760000Y-124460000D01*
%TD*%
M02*
