%TF.GenerationSoftware,KiCad,Pcbnew,7.0.5-0*%
%TF.CreationDate,2025-06-01T12:15:49-04:00*%
%TF.ProjectId,Solder,536f6c64-6572-42e6-9b69-6361645f7063,rev?*%
%TF.SameCoordinates,Original*%
%TF.FileFunction,Legend,Top*%
%TF.FilePolarity,Positive*%
%FSLAX46Y46*%
G04 Gerber Fmt 4.6, Leading zero omitted, Abs format (unit mm)*
G04 Created by KiCad (PCBNEW 7.0.5-0) date 2025-06-01 12:15:49*
%MOMM*%
%LPD*%
G01*
G04 APERTURE LIST*
%ADD10C,0.150000*%
%ADD11C,0.120000*%
G04 APERTURE END LIST*
D10*
X139700000Y-93980000D02*
X144780000Y-83820000D01*
X139700000Y-93980000D02*
X160020000Y-99060000D01*
X137160000Y-109220000D02*
X139700000Y-93980000D01*
X144780000Y-83820000D02*
X160020000Y-99060000D01*
X167640000Y-78740000D02*
X144780000Y-83820000D01*
X167640000Y-78740000D02*
X205740000Y-83820000D01*
X160020000Y-99060000D02*
X167640000Y-78740000D01*
X205740000Y-83820000D02*
X160020000Y-99060000D01*
X203200000Y-114300000D02*
X205740000Y-83820000D01*
X137160000Y-109220000D02*
X203200000Y-114300000D01*
X160020000Y-99060000D02*
X137160000Y-109220000D01*
X160020000Y-99060000D02*
X203200000Y-114300000D01*
%TO.C,SW1*%
X95896667Y-98047200D02*
X96039524Y-98094819D01*
X96039524Y-98094819D02*
X96277619Y-98094819D01*
X96277619Y-98094819D02*
X96372857Y-98047200D01*
X96372857Y-98047200D02*
X96420476Y-97999580D01*
X96420476Y-97999580D02*
X96468095Y-97904342D01*
X96468095Y-97904342D02*
X96468095Y-97809104D01*
X96468095Y-97809104D02*
X96420476Y-97713866D01*
X96420476Y-97713866D02*
X96372857Y-97666247D01*
X96372857Y-97666247D02*
X96277619Y-97618628D01*
X96277619Y-97618628D02*
X96087143Y-97571009D01*
X96087143Y-97571009D02*
X95991905Y-97523390D01*
X95991905Y-97523390D02*
X95944286Y-97475771D01*
X95944286Y-97475771D02*
X95896667Y-97380533D01*
X95896667Y-97380533D02*
X95896667Y-97285295D01*
X95896667Y-97285295D02*
X95944286Y-97190057D01*
X95944286Y-97190057D02*
X95991905Y-97142438D01*
X95991905Y-97142438D02*
X96087143Y-97094819D01*
X96087143Y-97094819D02*
X96325238Y-97094819D01*
X96325238Y-97094819D02*
X96468095Y-97142438D01*
X96801429Y-97094819D02*
X97039524Y-98094819D01*
X97039524Y-98094819D02*
X97230000Y-97380533D01*
X97230000Y-97380533D02*
X97420476Y-98094819D01*
X97420476Y-98094819D02*
X97658572Y-97094819D01*
X98563333Y-98094819D02*
X97991905Y-98094819D01*
X98277619Y-98094819D02*
X98277619Y-97094819D01*
X98277619Y-97094819D02*
X98182381Y-97237676D01*
X98182381Y-97237676D02*
X98087143Y-97332914D01*
X98087143Y-97332914D02*
X97991905Y-97380533D01*
%TO.C,R2*%
X128103333Y-102224819D02*
X127770000Y-101748628D01*
X127531905Y-102224819D02*
X127531905Y-101224819D01*
X127531905Y-101224819D02*
X127912857Y-101224819D01*
X127912857Y-101224819D02*
X128008095Y-101272438D01*
X128008095Y-101272438D02*
X128055714Y-101320057D01*
X128055714Y-101320057D02*
X128103333Y-101415295D01*
X128103333Y-101415295D02*
X128103333Y-101558152D01*
X128103333Y-101558152D02*
X128055714Y-101653390D01*
X128055714Y-101653390D02*
X128008095Y-101701009D01*
X128008095Y-101701009D02*
X127912857Y-101748628D01*
X127912857Y-101748628D02*
X127531905Y-101748628D01*
X128484286Y-101320057D02*
X128531905Y-101272438D01*
X128531905Y-101272438D02*
X128627143Y-101224819D01*
X128627143Y-101224819D02*
X128865238Y-101224819D01*
X128865238Y-101224819D02*
X128960476Y-101272438D01*
X128960476Y-101272438D02*
X129008095Y-101320057D01*
X129008095Y-101320057D02*
X129055714Y-101415295D01*
X129055714Y-101415295D02*
X129055714Y-101510533D01*
X129055714Y-101510533D02*
X129008095Y-101653390D01*
X129008095Y-101653390D02*
X128436667Y-102224819D01*
X128436667Y-102224819D02*
X129055714Y-102224819D01*
%TO.C,R1*%
X114133333Y-102224819D02*
X113800000Y-101748628D01*
X113561905Y-102224819D02*
X113561905Y-101224819D01*
X113561905Y-101224819D02*
X113942857Y-101224819D01*
X113942857Y-101224819D02*
X114038095Y-101272438D01*
X114038095Y-101272438D02*
X114085714Y-101320057D01*
X114085714Y-101320057D02*
X114133333Y-101415295D01*
X114133333Y-101415295D02*
X114133333Y-101558152D01*
X114133333Y-101558152D02*
X114085714Y-101653390D01*
X114085714Y-101653390D02*
X114038095Y-101701009D01*
X114038095Y-101701009D02*
X113942857Y-101748628D01*
X113942857Y-101748628D02*
X113561905Y-101748628D01*
X115085714Y-102224819D02*
X114514286Y-102224819D01*
X114800000Y-102224819D02*
X114800000Y-101224819D01*
X114800000Y-101224819D02*
X114704762Y-101367676D01*
X114704762Y-101367676D02*
X114609524Y-101462914D01*
X114609524Y-101462914D02*
X114514286Y-101510533D01*
%TO.C,D2*%
X180871905Y-120954819D02*
X180871905Y-119954819D01*
X180871905Y-119954819D02*
X181110000Y-119954819D01*
X181110000Y-119954819D02*
X181252857Y-120002438D01*
X181252857Y-120002438D02*
X181348095Y-120097676D01*
X181348095Y-120097676D02*
X181395714Y-120192914D01*
X181395714Y-120192914D02*
X181443333Y-120383390D01*
X181443333Y-120383390D02*
X181443333Y-120526247D01*
X181443333Y-120526247D02*
X181395714Y-120716723D01*
X181395714Y-120716723D02*
X181348095Y-120811961D01*
X181348095Y-120811961D02*
X181252857Y-120907200D01*
X181252857Y-120907200D02*
X181110000Y-120954819D01*
X181110000Y-120954819D02*
X180871905Y-120954819D01*
X181824286Y-120050057D02*
X181871905Y-120002438D01*
X181871905Y-120002438D02*
X181967143Y-119954819D01*
X181967143Y-119954819D02*
X182205238Y-119954819D01*
X182205238Y-119954819D02*
X182300476Y-120002438D01*
X182300476Y-120002438D02*
X182348095Y-120050057D01*
X182348095Y-120050057D02*
X182395714Y-120145295D01*
X182395714Y-120145295D02*
X182395714Y-120240533D01*
X182395714Y-120240533D02*
X182348095Y-120383390D01*
X182348095Y-120383390D02*
X181776667Y-120954819D01*
X181776667Y-120954819D02*
X182395714Y-120954819D01*
%TO.C,D1*%
X112291905Y-120954819D02*
X112291905Y-119954819D01*
X112291905Y-119954819D02*
X112530000Y-119954819D01*
X112530000Y-119954819D02*
X112672857Y-120002438D01*
X112672857Y-120002438D02*
X112768095Y-120097676D01*
X112768095Y-120097676D02*
X112815714Y-120192914D01*
X112815714Y-120192914D02*
X112863333Y-120383390D01*
X112863333Y-120383390D02*
X112863333Y-120526247D01*
X112863333Y-120526247D02*
X112815714Y-120716723D01*
X112815714Y-120716723D02*
X112768095Y-120811961D01*
X112768095Y-120811961D02*
X112672857Y-120907200D01*
X112672857Y-120907200D02*
X112530000Y-120954819D01*
X112530000Y-120954819D02*
X112291905Y-120954819D01*
X113815714Y-120954819D02*
X113244286Y-120954819D01*
X113530000Y-120954819D02*
X113530000Y-119954819D01*
X113530000Y-119954819D02*
X113434762Y-120097676D01*
X113434762Y-120097676D02*
X113339524Y-120192914D01*
X113339524Y-120192914D02*
X113244286Y-120240533D01*
D11*
%TO.C,SW1*%
X94980000Y-105140000D02*
X99480000Y-105140000D01*
X93730000Y-101140000D02*
X93730000Y-102640000D01*
X99480000Y-98640000D02*
X94980000Y-98640000D01*
X100730000Y-102640000D02*
X100730000Y-101140000D01*
%TO.C,R2*%
X131540000Y-105510000D02*
X131540000Y-105180000D01*
X125000000Y-102770000D02*
X131540000Y-102770000D01*
X125000000Y-105510000D02*
X131540000Y-105510000D01*
X125000000Y-105180000D02*
X125000000Y-105510000D01*
X125000000Y-103100000D02*
X125000000Y-102770000D01*
X131540000Y-102770000D02*
X131540000Y-103100000D01*
%TO.C,R1*%
X117570000Y-105510000D02*
X117570000Y-105180000D01*
X111030000Y-102770000D02*
X117570000Y-102770000D01*
X111030000Y-105510000D02*
X117570000Y-105510000D01*
X111030000Y-105180000D02*
X111030000Y-105510000D01*
X111030000Y-103100000D02*
X111030000Y-102770000D01*
X117570000Y-102770000D02*
X117570000Y-103100000D01*
%TO.C,D2*%
X179050000Y-122915000D02*
X179050000Y-126005000D01*
X179050000Y-126004830D02*
G75*
G03*
X184600000Y-124459538I2560000J1544830D01*
G01*
X184599999Y-124460462D02*
G75*
G03*
X179050001Y-122915170I-2989999J462D01*
G01*
X184110000Y-124460000D02*
G75*
G03*
X184110000Y-124460000I-2500000J0D01*
G01*
%TO.C,D1*%
X115530000Y-124460000D02*
G75*
G03*
X115530000Y-124460000I-2500000J0D01*
G01*
X116019999Y-124460462D02*
G75*
G03*
X110470001Y-122915170I-2989999J462D01*
G01*
X110470000Y-126004830D02*
G75*
G03*
X116020000Y-124459538I2560000J1544830D01*
G01*
X110470000Y-122915000D02*
X110470000Y-126005000D01*
%TD*%
M02*
