%TF.GenerationSoftware,KiCad,Pcbnew,7.0.5-0*%
%TF.CreationDate,2025-06-01T12:15:49-04:00*%
%TF.ProjectId,Solder,536f6c64-6572-42e6-9b69-6361645f7063,rev?*%
%TF.SameCoordinates,Original*%
%TF.FileFunction,Legend,Bot*%
%TF.FilePolarity,Positive*%
%FSLAX46Y46*%
G04 Gerber Fmt 4.6, Leading zero omitted, Abs format (unit mm)*
G04 Created by KiCad (PCBNEW 7.0.5-0) date 2025-06-01 12:15:49*
%MOMM*%
%LPD*%
G01*
G04 APERTURE LIST*
%ADD10C,0.150000*%
%ADD11C,0.120000*%
G04 APERTURE END LIST*
D10*
X114300000Y-109220000D02*
X99060000Y-114300000D01*
X116840000Y-114300000D02*
X114300000Y-109220000D01*
X99060000Y-114300000D02*
X116840000Y-114300000D01*
X177800000Y-96520000D02*
X200660000Y-116840000D01*
X172720000Y-109220000D02*
X177800000Y-96520000D01*
X200660000Y-116840000D02*
X172720000Y-109220000D01*
%TO.C,BT1*%
X122705714Y-74791009D02*
X122562857Y-74838628D01*
X122562857Y-74838628D02*
X122515238Y-74886247D01*
X122515238Y-74886247D02*
X122467619Y-74981485D01*
X122467619Y-74981485D02*
X122467619Y-75124342D01*
X122467619Y-75124342D02*
X122515238Y-75219580D01*
X122515238Y-75219580D02*
X122562857Y-75267200D01*
X122562857Y-75267200D02*
X122658095Y-75314819D01*
X122658095Y-75314819D02*
X123039047Y-75314819D01*
X123039047Y-75314819D02*
X123039047Y-74314819D01*
X123039047Y-74314819D02*
X122705714Y-74314819D01*
X122705714Y-74314819D02*
X122610476Y-74362438D01*
X122610476Y-74362438D02*
X122562857Y-74410057D01*
X122562857Y-74410057D02*
X122515238Y-74505295D01*
X122515238Y-74505295D02*
X122515238Y-74600533D01*
X122515238Y-74600533D02*
X122562857Y-74695771D01*
X122562857Y-74695771D02*
X122610476Y-74743390D01*
X122610476Y-74743390D02*
X122705714Y-74791009D01*
X122705714Y-74791009D02*
X123039047Y-74791009D01*
X122181904Y-74314819D02*
X121610476Y-74314819D01*
X121896190Y-75314819D02*
X121896190Y-74314819D01*
X120753333Y-75314819D02*
X121324761Y-75314819D01*
X121039047Y-75314819D02*
X121039047Y-74314819D01*
X121039047Y-74314819D02*
X121134285Y-74457676D01*
X121134285Y-74457676D02*
X121229523Y-74552914D01*
X121229523Y-74552914D02*
X121324761Y-74600533D01*
D11*
X127923354Y-94926530D02*
G75*
G03*
X131260000Y-93940000I1306646J1716531D01*
G01*
X112594757Y-93948169D02*
G75*
G03*
X115920000Y-94909999I2015243J738169D01*
G01*
X130620000Y-78820000D02*
X132700000Y-80900000D01*
X132700000Y-89990000D02*
X131260000Y-93940000D01*
X111140000Y-89990000D02*
X112580000Y-93940000D01*
X113220000Y-78820000D02*
X116720000Y-78820000D01*
X132700000Y-89360000D02*
X132700000Y-89990000D01*
X132700000Y-80900000D02*
X132700000Y-83360000D01*
X111140000Y-80900000D02*
X111140000Y-83360000D01*
X113220000Y-78820000D02*
X111140000Y-80900000D01*
X111140000Y-89360000D02*
X111140000Y-89990000D01*
X127120000Y-78820000D02*
X130620000Y-78820000D01*
%TD*%
M02*
